<svg width="473" height="172" viewBox="0 0 473 172" fill="none" xmlns="http://www.w3.org/2000/svg">
<path d="M0 21C0 9.40202 9.40202 0 21 0H450C461.598 0 471 9.40202 471 21V151C471 162.598 461.598 172 450 172H21C9.40203 172 0 162.598 0 151V21Z" fill="white"/>
<path d="M73.4062 94.8711H84.6562C84.0703 100.262 82.5273 105.086 80.0273 109.344C77.5273 113.602 73.9922 116.98 69.4219 119.48C64.8516 121.941 59.1484 123.172 52.3125 123.172C47.3125 123.172 42.7617 122.234 38.6602 120.359C34.5977 118.484 31.1016 115.828 28.1719 112.391C25.2422 108.914 22.9766 104.754 21.375 99.9102C19.8125 95.0273 19.0312 89.5977 19.0312 83.6211V75.125C19.0312 69.1484 19.8125 63.7383 21.375 58.8945C22.9766 54.0117 25.2617 49.832 28.2305 46.3555C31.2383 42.8789 34.8516 40.2031 39.0703 38.3281C43.2891 36.4531 48.0352 35.5156 53.3086 35.5156C59.7539 35.5156 65.2031 36.7266 69.6562 39.1484C74.1094 41.5703 77.5664 44.9297 80.0273 49.2266C82.5273 53.4844 84.0703 58.4258 84.6562 64.0508H73.4062C72.8594 60.0664 71.8438 56.6484 70.3594 53.7969C68.875 50.9063 66.7656 48.6797 64.0312 47.1172C61.2969 45.5547 57.7227 44.7734 53.3086 44.7734C49.5195 44.7734 46.1797 45.4961 43.2891 46.9414C40.4375 48.3867 38.0352 50.4375 36.082 53.0938C34.168 55.75 32.7227 58.9336 31.7461 62.6445C30.7695 66.3555 30.2812 70.4766 30.2812 75.0078V83.6211C30.2812 87.8008 30.7109 91.7266 31.5703 95.3984C32.4688 99.0703 33.8164 102.293 35.6133 105.066C37.4102 107.84 39.6953 110.027 42.4688 111.629C45.2422 113.191 48.5234 113.973 52.3125 113.973C57.1172 113.973 60.9453 113.211 63.7969 111.688C66.6484 110.164 68.7969 107.977 70.2422 105.125C71.7266 102.273 72.7812 98.8555 73.4062 94.8711ZM135.809 111.16V78.5234C135.809 76.0234 135.301 73.8555 134.285 72.0195C133.309 70.1445 131.824 68.6992 129.832 67.6836C127.84 66.668 125.379 66.1602 122.449 66.1602C119.715 66.1602 117.312 66.6289 115.242 67.5664C113.211 68.5039 111.609 69.7344 110.438 71.2578C109.305 72.7812 108.738 74.4219 108.738 76.1797H97.8984C97.8984 73.9141 98.4844 71.668 99.6562 69.4414C100.828 67.2148 102.508 65.2031 104.695 63.4062C106.922 61.5703 109.578 60.125 112.664 59.0703C115.789 57.9766 119.266 57.4297 123.094 57.4297C127.703 57.4297 131.766 58.2109 135.281 59.7734C138.836 61.3359 141.609 63.6992 143.602 66.8633C145.633 69.9883 146.648 73.9141 146.648 78.6406V108.172C146.648 110.281 146.824 112.527 147.176 114.91C147.566 117.293 148.133 119.344 148.875 121.062V122H137.566C137.02 120.75 136.59 119.09 136.277 117.02C135.965 114.91 135.809 112.957 135.809 111.16ZM137.684 83.5625L137.801 91.1797H126.844C123.758 91.1797 121.004 91.4336 118.582 91.9414C116.16 92.4102 114.129 93.1328 112.488 94.1094C110.848 95.0859 109.598 96.3164 108.738 97.8008C107.879 99.2461 107.449 100.945 107.449 102.898C107.449 104.891 107.898 106.707 108.797 108.348C109.695 109.988 111.043 111.297 112.84 112.273C114.676 113.211 116.922 113.68 119.578 113.68C122.898 113.68 125.828 112.977 128.367 111.57C130.906 110.164 132.918 108.445 134.402 106.414C135.926 104.383 136.746 102.41 136.863 100.496L141.492 105.711C141.219 107.352 140.477 109.168 139.266 111.16C138.055 113.152 136.434 115.066 134.402 116.902C132.41 118.699 130.027 120.203 127.254 121.414C124.52 122.586 121.434 123.172 117.996 123.172C113.699 123.172 109.93 122.332 106.688 120.652C103.484 118.973 100.984 116.727 99.1875 113.914C97.4297 111.062 96.5508 107.879 96.5508 104.363C96.5508 100.965 97.2148 97.9766 98.543 95.3984C99.8711 92.7812 101.785 90.6133 104.285 88.8945C106.785 87.1367 109.793 85.8086 113.309 84.9102C116.824 84.0117 120.75 83.5625 125.086 83.5625H137.684ZM174.48 71.1992V122H163.582V58.6016H173.895L174.48 71.1992ZM172.254 87.8984L167.215 87.7227C167.254 83.3867 167.82 79.3828 168.914 75.7109C170.008 72 171.629 68.7773 173.777 66.043C175.926 63.3086 178.602 61.1992 181.805 59.7148C185.008 58.1914 188.719 57.4297 192.938 57.4297C195.906 57.4297 198.641 57.8594 201.141 58.7188C203.641 59.5391 205.809 60.8477 207.645 62.6445C209.48 64.4414 210.906 66.7461 211.922 69.5586C212.938 72.3711 213.445 75.7695 213.445 79.7539V122H202.605V80.2812C202.605 76.9609 202.039 74.3047 200.906 72.3125C199.812 70.3203 198.25 68.875 196.219 67.9766C194.188 67.0391 191.805 66.5703 189.07 66.5703C185.867 66.5703 183.191 67.1367 181.043 68.2695C178.895 69.4023 177.176 70.9648 175.887 72.957C174.598 74.9492 173.66 77.2344 173.074 79.8125C172.527 82.3516 172.254 85.0469 172.254 87.8984ZM213.328 81.9219L206.062 84.1484C206.102 80.6719 206.668 77.332 207.762 74.1289C208.895 70.9258 210.516 68.0742 212.625 65.5742C214.773 63.0742 217.41 61.1016 220.535 59.6562C223.66 58.1719 227.234 57.4297 231.258 57.4297C234.656 57.4297 237.664 57.8789 240.281 58.7773C242.938 59.6758 245.164 61.0625 246.961 62.9375C248.797 64.7734 250.184 67.1367 251.121 70.0273C252.059 72.918 252.527 76.3555 252.527 80.3398V122H241.629V80.2227C241.629 76.668 241.062 73.9141 239.93 71.9609C238.836 69.9688 237.273 68.582 235.242 67.8008C233.25 66.9805 230.867 66.5703 228.094 66.5703C225.711 66.5703 223.602 66.9805 221.766 67.8008C219.93 68.6211 218.387 69.7539 217.137 71.1992C215.887 72.6055 214.93 74.2266 214.266 76.0625C213.641 77.8984 213.328 79.8516 213.328 81.9219ZM295.242 123.172C290.828 123.172 286.824 122.43 283.23 120.945C279.676 119.422 276.609 117.293 274.031 114.559C271.492 111.824 269.539 108.582 268.172 104.832C266.805 101.082 266.121 96.9805 266.121 92.5273V90.0664C266.121 84.9102 266.883 80.3203 268.406 76.2969C269.93 72.2344 272 68.7969 274.617 65.9844C277.234 63.1719 280.203 61.043 283.523 59.5977C286.844 58.1523 290.281 57.4297 293.836 57.4297C298.367 57.4297 302.273 58.2109 305.555 59.7734C308.875 61.3359 311.59 63.5234 313.699 66.3359C315.809 69.1094 317.371 72.3906 318.387 76.1797C319.402 79.9297 319.91 84.0312 319.91 88.4844V93.3477H272.566V84.5H309.07V83.6797C308.914 80.8672 308.328 78.1328 307.312 75.4766C306.336 72.8203 304.773 70.6328 302.625 68.9141C300.477 67.1953 297.547 66.3359 293.836 66.3359C291.375 66.3359 289.109 66.8633 287.039 67.918C284.969 68.9336 283.191 70.457 281.707 72.4883C280.223 74.5195 279.07 77 278.25 79.9297C277.43 82.8594 277.02 86.2383 277.02 90.0664V92.5273C277.02 95.5352 277.43 98.3672 278.25 101.023C279.109 103.641 280.34 105.945 281.941 107.938C283.582 109.93 285.555 111.492 287.859 112.625C290.203 113.758 292.859 114.324 295.828 114.324C299.656 114.324 302.898 113.543 305.555 111.98C308.211 110.418 310.535 108.328 312.527 105.711L319.09 110.926C317.723 112.996 315.984 114.969 313.875 116.844C311.766 118.719 309.168 120.242 306.082 121.414C303.035 122.586 299.422 123.172 295.242 123.172ZM344.344 32V122H333.445V32H344.344ZM373.523 32V122H362.625V32H373.523ZM428.309 111.16V78.5234C428.309 76.0234 427.801 73.8555 426.785 72.0195C425.809 70.1445 424.324 68.6992 422.332 67.6836C420.34 66.668 417.879 66.1602 414.949 66.1602C412.215 66.1602 409.812 66.6289 407.742 67.5664C405.711 68.5039 404.109 69.7344 402.938 71.2578C401.805 72.7812 401.238 74.4219 401.238 76.1797H390.398C390.398 73.9141 390.984 71.668 392.156 69.4414C393.328 67.2148 395.008 65.2031 397.195 63.4062C399.422 61.5703 402.078 60.125 405.164 59.0703C408.289 57.9766 411.766 57.4297 415.594 57.4297C420.203 57.4297 424.266 58.2109 427.781 59.7734C431.336 61.3359 434.109 63.6992 436.102 66.8633C438.133 69.9883 439.148 73.9141 439.148 78.6406V108.172C439.148 110.281 439.324 112.527 439.676 114.91C440.066 117.293 440.633 119.344 441.375 121.062V122H430.066C429.52 120.75 429.09 119.09 428.777 117.02C428.465 114.91 428.309 112.957 428.309 111.16ZM430.184 83.5625L430.301 91.1797H419.344C416.258 91.1797 413.504 91.4336 411.082 91.9414C408.66 92.4102 406.629 93.1328 404.988 94.1094C403.348 95.0859 402.098 96.3164 401.238 97.8008C400.379 99.2461 399.949 100.945 399.949 102.898C399.949 104.891 400.398 106.707 401.297 108.348C402.195 109.988 403.543 111.297 405.34 112.273C407.176 113.211 409.422 113.68 412.078 113.68C415.398 113.68 418.328 112.977 420.867 111.57C423.406 110.164 425.418 108.445 426.902 106.414C428.426 104.383 429.246 102.41 429.363 100.496L433.992 105.711C433.719 107.352 432.977 109.168 431.766 111.16C430.555 113.152 428.934 115.066 426.902 116.902C424.91 118.699 422.527 120.203 419.754 121.414C417.02 122.586 413.934 123.172 410.496 123.172C406.199 123.172 402.43 122.332 399.188 120.652C395.984 118.973 393.484 116.727 391.688 113.914C389.93 111.062 389.051 107.879 389.051 104.363C389.051 100.965 389.715 97.9766 391.043 95.3984C392.371 92.7812 394.285 90.6133 396.785 88.8945C399.285 87.1367 402.293 85.8086 405.809 84.9102C409.324 84.0117 413.25 83.5625 417.586 83.5625H430.184Z" fill="#635BFF"/>
</svg>
