<svg width="140" height="140" viewBox="0 0 140 145" fill="none" xmlns="http://www.w3.org/2000/svg">
<path d="M0 26C0 14.402 9.40202 5 21 5H119C130.598 5 140 14.402 140 26V124C140 135.598 130.598 145 119 145H21C9.40202 145 0 135.598 0 124V26Z" fill="#635BFF"/>
<path d="M99.8984 82.7734V96.8359C99.8984 103.984 95.4648 109.395 86.5977 113.066C81.6367 115.137 76.207 116.172 70.3086 116.172C64.4102 116.172 58.9805 115.137 54.0195 113.066C45.1523 109.395 40.7188 103.984 40.7188 96.8359V44.6875C40.7188 37.5391 45.1523 32.1289 54.0195 28.457C58.9805 26.3867 64.4102 25.3516 70.3086 25.3516C76.207 25.3516 81.6367 26.3867 86.5977 28.457C95.4648 32.1289 99.8984 37.5391 99.8984 44.6875V53.4766L88.7656 58.75H88.1797V44.6875C88.1797 42.0313 85.8164 39.7461 81.0898 37.832C77.8086 36.543 74.2148 35.8984 70.3086 35.8984C66.4023 35.8984 62.8086 36.543 59.5273 37.832C54.8008 39.707 52.4375 41.9922 52.4375 44.6875V96.8359C52.4375 99.4922 54.8008 101.777 59.5273 103.691C62.8086 104.98 66.4023 105.625 70.3086 105.625C74.2148 105.625 77.8086 104.98 81.0898 103.691C85.8164 101.816 88.1797 99.5312 88.1797 96.8359V88.0469L99.3125 82.7734H99.8984Z" fill="white"/>
</svg>
