<svg width="148" height="145" viewBox="0 0 148 145" fill="none" xmlns="http://www.w3.org/2000/svg">
<rect width="148" height="145" rx="15" fill="white"/>
<path d="M4.66309 25.5776C4.66309 12.8751 14.9605 2.57764 27.6631 2.57764H120.704C133.407 2.57764 143.704 12.8751 143.704 25.5776V118.619C143.704 131.321 133.407 141.619 120.704 141.619H27.6631C14.9605 141.619 4.66309 131.321 4.66309 118.619V25.5776Z" fill="#635BFF"/>
<path d="M77.1631 58.194L79.2886 50.7271C86.8655 24.1086 111.358 5.88326 139.031 6.27109" stroke="white" stroke-width="10"/>
<path d="M70.2108 85.009L68.5076 91.285C61.1837 118.271 36.8246 137.107 8.86418 137.405" stroke="white" stroke-width="10"/>
<path d="M81.1355 71.6017C81.1355 75.1669 77.8007 78.0571 73.6869 78.0571C69.5731 78.0571 66.2383 75.1669 66.2383 71.6017C66.2383 68.0364 69.5731 65.1462 73.6869 65.1462C77.8007 65.1462 81.1355 68.0364 81.1355 71.6017Z" fill="white"/>
</svg>
