<svg width="40" height="40" viewBox="0 0 40 40" fill="none" xmlns="http://www.w3.org/2000/svg">
<path d="M20 0.5C30.7696 0.5 39.5 9.23045 39.5 20C39.5 30.7696 30.7696 39.5 20 39.5C9.23045 39.5 0.5 30.7696 0.5 20C0.5 9.23045 9.23045 0.5 20 0.5Z" fill="white" stroke="black"/>
<line x1="30.1695" y1="31.966" x2="19.8058" y2="20.1478" stroke="black"/>
<line x1="19.6818" y1="19.8182" x2="19.6818" y2="5.0909" stroke="black"/>
<line x1="9.79729" y1="31.3168" x2="19.6155" y2="19.4987" stroke="black"/>
<line x1="10.1819" y1="31.1364" x2="30.1819" y2="31.1364" stroke="black"/>
<line x1="30.2601" y1="31.8144" x2="20.0782" y2="5.08708" stroke="black"/>
<path d="M9.81818 31.638L19.5915 4.90908" stroke="black"/>
<circle cx="30.4546" cy="31.7273" r="0.863636" fill="black" stroke="black"/>
<path d="M19.9996 4.13635C20.4765 4.13635 20.8637 4.52283 20.8639 4.99963C20.8639 5.4766 20.4766 5.86389 19.9996 5.86389C19.5228 5.8637 19.1364 5.47649 19.1364 4.99963C19.1365 4.52295 19.5229 4.13654 19.9996 4.13635Z" fill="black" stroke="black"/>
<path d="M9.63599 30.8882C10.1128 30.8882 10.5001 31.2747 10.5002 31.7515C10.5002 32.2284 10.113 32.6157 9.63599 32.6157C9.15918 32.6155 8.77271 32.2283 8.77271 31.7515C8.7729 31.2748 9.1593 30.8884 9.63599 30.8882Z" fill="black" stroke="black"/>
<path d="M19.9087 19.0454C20.3855 19.0454 20.7728 19.4319 20.7729 19.9087C20.7729 20.3857 20.3857 20.7729 19.9087 20.7729C19.4319 20.7728 19.0454 20.3855 19.0454 19.9087C19.0456 19.432 19.432 19.0456 19.9087 19.0454Z" fill="black" stroke="black"/>
</svg>
