<svg xmlns="http://www.w3.org/2000/svg" viewBox="0 0 256 256" width="128" height="128"><path d="M128 24a104 104 0 1 0 104 104A104.11 104.11 0 0 0 128 24Zm0 192a88 88 0 1 1 88-88a88.1 88.1 0 0 1-88 88Z"/><path d="M128 72a56 56 0 1 0 56 56a56.06 56.06 0 0 0-56-56Zm0 96a40 40 0 1 1 40-40a40.05 40.05 0 0 1-40 40Z"/><path d="M197.37 186.13a8 8 0 0 0-5.4 1.83l-18 15.11a8 8 0 0 0 10.06 12l18-15.11a8 8 0 0 0-4.66-13.83Z"/><path d="M152 203.07a8 8 0 0 0-7.85-6.2l-14.77-1.22a8 8 0 0 0-7.53 8.36l1.22 14.77a8 8 0 0 0 8.36 7.53A8.13 8.13 0 0 0 132 226a8 8 0 0 0 7.53-8.36l-1.07-12.91 11.21.93a8 8 0 0 0 8.33-7.59Z"/><path d="M58.63 69.87a8 8 0 0 0 5.4-1.83l18-15.11a8 8 0 1 0-10.06-12l-18 15.11a8 8 0 0 0 4.66 13.83Z"/><path d="M104 52.93a8 8 0 0 0 7.85 6.2l14.77 1.22a8 8 0 0 0 7.53-8.36l-1.22-14.77a8 8 0 0 0-8.36-7.53A8.13 8.13 0 0 0 124 30a8 8 0 0 0-7.53 8.36l1.07 12.91-11.21-.93a8 8 0 0 0-8.33 7.59Z"/></svg>
